<?xml version="1.0" encoding="UTF-8" standalone="no"?>
<!DOCTYPE svg PUBLIC "-//W3C//DTD SVG 1.1//EN"
 "http://www.w3.org/Graphics/SVG/1.1/DTD/svg11.dtd">
<!-- Generated by graphviz version 2.40.1 (20161225.0304)
 -->
<!-- Title: Families Pages: 1 -->
<svg width="3442pt" height="188pt"
 viewBox="0.00 0.00 3442.09 188.00" xmlns="http://www.w3.org/2000/svg" xmlns:xlink="http://www.w3.org/1999/xlink">
<g id="graph0" class="graph" transform="scale(1 1) rotate(0) translate(4 184)">
<title>Families</title>
<polygon fill="#ffffff" stroke="transparent" points="-4,4 -4,-184 3438.0923,-184 3438.0923,4 -4,4"/>
<!-- 0a -->
<g id="node1" class="node">
<title>0a</title>
<ellipse fill="#ffa500" stroke="#ffa500" cx="515.5952" cy="-162" rx="46.5926" ry="18"/>
<text text-anchor="middle" x="515.5952" y="-158.3" font-family="Times,serif" font-size="14.00" fill="#000000">Rabburgis</text>
</g>
<!-- 1 -->
<g id="node3" class="node">
<title>1</title>
<polygon fill="#b2dfee" stroke="#b2dfee" points="575.5952,-108 548.5952,-90 575.5952,-72 602.5952,-90 575.5952,-108"/>
<text text-anchor="middle" x="575.5952" y="-86.3" font-family="Times,serif" font-size="14.00" fill="#000000">1</text>
</g>
<!-- 0a&#45;&gt;1 -->
<g id="edge1" class="edge">
<title>0a&#45;&gt;1</title>
<path fill="none" stroke="#000000" d="M530.1195,-144.5708C538.9634,-133.9581 550.2782,-120.3803 559.4089,-109.4235"/>
<polygon fill="#000000" stroke="#000000" points="562.1753,-111.571 565.8884,-101.6481 556.7978,-107.0896 562.1753,-111.571"/>
</g>
<!-- 0b -->
<g id="node2" class="node">
<title>0b</title>
<ellipse fill="#b2dfee" stroke="#b2dfee" cx="636.5952" cy="-162" rx="55.7903" ry="18"/>
<text text-anchor="middle" x="636.5952" y="-158.3" font-family="Times,serif" font-size="14.00" fill="#000000">Reymbernus</text>
</g>
<!-- 0b&#45;&gt;1 -->
<g id="edge2" class="edge">
<title>0b&#45;&gt;1</title>
<path fill="none" stroke="#000000" d="M621.8288,-144.5708C612.8375,-133.9581 601.3341,-120.3803 592.0511,-109.4235"/>
<polygon fill="#000000" stroke="#000000" points="594.5983,-107.0155 585.4637,-101.6481 589.2574,-111.5404 594.5983,-107.0155"/>
</g>
<!-- 1c1 -->
<g id="node17" class="node">
<title>1c1</title>
<ellipse fill="#ffa500" stroke="#ffa500" cx="54.5952" cy="-18" rx="54.6905" ry="18"/>
<text text-anchor="middle" x="54.5952" y="-14.3" font-family="Times,serif" font-size="14.00" fill="#000000">Woubbrecht</text>
</g>
<!-- 1&#45;&gt;1c1 -->
<g id="edge13" class="edge">
<title>1&#45;&gt;1c1</title>
<path fill="none" stroke="#000000" d="M550.612,-88.428C481.4107,-83.7777 281.5928,-68.3447 118.5952,-36 113.9569,-35.0796 109.1641,-33.9928 104.385,-32.8164"/>
<polygon fill="#000000" stroke="#000000" points="105.2061,-29.4137 94.6485,-30.3006 103.4548,-36.1911 105.2061,-29.4137"/>
</g>
<!-- 1c2 -->
<g id="node20" class="node">
<title>1c2</title>
<ellipse fill="#b2dfee" stroke="#b2dfee" cx="175.5952" cy="-18" rx="48.1917" ry="18"/>
<text text-anchor="middle" x="175.5952" y="-14.3" font-family="Times,serif" font-size="14.00" fill="#000000">Woltwigis</text>
</g>
<!-- 1&#45;&gt;1c2 -->
<g id="edge16" class="edge">
<title>1&#45;&gt;1c2</title>
<path fill="none" stroke="#000000" d="M552.1492,-87.481C496.422,-81.2379 351.8552,-63.5353 233.5952,-36 229.5519,-35.0586 225.3803,-33.9809 221.2155,-32.8312"/>
<polygon fill="#000000" stroke="#000000" points="222.152,-29.4587 211.5736,-30.048 220.2107,-36.1841 222.152,-29.4587"/>
</g>
<!-- 1c3 -->
<g id="node24" class="node">
<title>1c3</title>
<ellipse fill="#b2dfee" stroke="#b2dfee" cx="302.5952" cy="-18" rx="60.3893" ry="18"/>
<text text-anchor="middle" x="302.5952" y="-14.3" font-family="Times,serif" font-size="14.00" fill="#000000">Bartholomeus</text>
</g>
<!-- 1&#45;&gt;1c3 -->
<g id="edge20" class="edge">
<title>1&#45;&gt;1c3</title>
<path fill="none" stroke="#000000" d="M555.9617,-84.8219C515.0223,-74.0247 419.2577,-48.7681 357.8929,-32.584"/>
<polygon fill="#000000" stroke="#000000" points="358.5416,-29.1355 347.9796,-29.9695 356.7564,-35.904 358.5416,-29.1355"/>
</g>
<!-- 1c4 -->
<g id="node27" class="node">
<title>1c4</title>
<ellipse fill="#b2dfee" stroke="#b2dfee" cx="421.5952" cy="-18" rx="40.0939" ry="18"/>
<text text-anchor="middle" x="421.5952" y="-14.3" font-family="Times,serif" font-size="14.00" fill="#000000">Siburgis</text>
</g>
<!-- 1&#45;&gt;1c4 -->
<g id="edge23" class="edge">
<title>1&#45;&gt;1c4</title>
<path fill="none" stroke="#000000" d="M559.6945,-82.5659C536.0532,-71.5128 490.9655,-50.4329 458.7382,-35.3656"/>
<polygon fill="#000000" stroke="#000000" points="460.1446,-32.1595 449.6034,-31.0948 457.1799,-38.5007 460.1446,-32.1595"/>
</g>
<!-- 1c5 -->
<g id="node28" class="node">
<title>1c5</title>
<ellipse fill="#b2dfee" stroke="#b2dfee" cx="522.5952" cy="-18" rx="42.7926" ry="18"/>
<text text-anchor="middle" x="522.5952" y="-14.3" font-family="Times,serif" font-size="14.00" fill="#000000">Dammas</text>
</g>
<!-- 1&#45;&gt;1c5 -->
<g id="edge24" class="edge">
<title>1&#45;&gt;1c5</title>
<path fill="none" stroke="#000000" d="M566.6044,-77.7862C559.7125,-68.4236 549.9607,-55.1758 541.3877,-43.5295"/>
<polygon fill="#000000" stroke="#000000" points="544.1581,-41.3891 535.4112,-35.4105 538.5208,-45.5388 544.1581,-41.3891"/>
</g>
<!-- 1c6 -->
<g id="node32" class="node">
<title>1c6</title>
<ellipse fill="#ffa500" stroke="#ffa500" cx="629.5952" cy="-18" rx="46.2923" ry="18"/>
<text text-anchor="middle" x="629.5952" y="-14.3" font-family="Times,serif" font-size="14.00" fill="#000000">Wigboldo</text>
</g>
<!-- 1&#45;&gt;1c6 -->
<g id="edge28" class="edge">
<title>1&#45;&gt;1c6</title>
<path fill="none" stroke="#000000" d="M584.7555,-77.7862C591.7775,-68.4236 601.7133,-55.1758 610.4481,-43.5295"/>
<polygon fill="#000000" stroke="#000000" points="613.3372,-45.5106 616.5373,-35.4105 607.7372,-41.3105 613.3372,-45.5106"/>
</g>
<!-- 1c7 -->
<g id="node35" class="node">
<title>1c7</title>
<ellipse fill="#b2dfee" stroke="#b2dfee" cx="731.5952" cy="-18" rx="38.1938" ry="18"/>
<text text-anchor="middle" x="731.5952" y="-14.3" font-family="Times,serif" font-size="14.00" fill="#000000">Sifridus</text>
</g>
<!-- 1&#45;&gt;1c7 -->
<g id="edge31" class="edge">
<title>1&#45;&gt;1c7</title>
<path fill="none" stroke="#000000" d="M591.7023,-82.5659C615.8632,-71.4147 662.1364,-50.0579 694.8359,-34.9658"/>
<polygon fill="#000000" stroke="#000000" points="696.4755,-38.0639 704.0884,-30.6954 693.542,-31.7082 696.4755,-38.0639"/>
</g>
<!-- 1c8 -->
<g id="node37" class="node">
<title>1c8</title>
<ellipse fill="#b2dfee" stroke="#b2dfee" cx="830.5952" cy="-18" rx="42.4939" ry="18"/>
<text text-anchor="middle" x="830.5952" y="-14.3" font-family="Times,serif" font-size="14.00" fill="#000000">Gherelm</text>
</g>
<!-- 1&#45;&gt;1c8 -->
<g id="edge33" class="edge">
<title>1&#45;&gt;1c8</title>
<path fill="none" stroke="#000000" d="M595.6143,-85.1917C632.1868,-76.2932 712.1562,-56.306 778.5952,-36 781.8927,-34.9921 785.2941,-33.9107 788.7045,-32.7964"/>
<polygon fill="#000000" stroke="#000000" points="789.8857,-36.092 798.2609,-29.603 787.6671,-29.4529 789.8857,-36.092"/>
</g>
<!-- 1c9 -->
<g id="node40" class="node">
<title>1c9</title>
<ellipse fill="#b2dfee" stroke="#b2dfee" cx="934.5952" cy="-18" rx="44.393" ry="18"/>
<text text-anchor="middle" x="934.5952" y="-14.3" font-family="Times,serif" font-size="14.00" fill="#000000">Reynerus</text>
</g>
<!-- 1&#45;&gt;1c9 -->
<g id="edge36" class="edge">
<title>1&#45;&gt;1c9</title>
<path fill="none" stroke="#000000" d="M598.4977,-87.1767C649.7442,-80.595 777.3465,-62.7341 881.5952,-36 884.9441,-35.1412 888.3859,-34.1734 891.83,-33.1435"/>
<polygon fill="#000000" stroke="#000000" points="892.9762,-36.4522 901.4673,-30.1157 890.878,-29.774 892.9762,-36.4522"/>
</g>
<!-- 1c10 -->
<g id="node44" class="node">
<title>1c10</title>
<ellipse fill="#b2dfee" stroke="#b2dfee" cx="1033.5952" cy="-18" rx="36.2938" ry="18"/>
<text text-anchor="middle" x="1033.5952" y="-14.3" font-family="Times,serif" font-size="14.00" fill="#000000">Symon</text>
</g>
<!-- 1&#45;&gt;1c10 -->
<g id="edge40" class="edge">
<title>1&#45;&gt;1c10</title>
<path fill="none" stroke="#000000" d="M601.0813,-88.809C666.3326,-85.3 844.3673,-72.8249 987.5952,-36 990.5722,-35.2346 993.6174,-34.3306 996.6532,-33.3419"/>
<polygon fill="#000000" stroke="#000000" points="997.9601,-36.5923 1006.2234,-29.9613 995.6286,-29.992 997.9601,-36.5923"/>
</g>
<!-- 1a -->
<g id="node4" class="node">
<title>1a</title>
<ellipse fill="#ffa500" stroke="#ffa500" cx="1439.5952" cy="-162" rx="38.9931" ry="18"/>
<text text-anchor="middle" x="1439.5952" y="-158.3" font-family="Times,serif" font-size="14.00" fill="#000000">Uergina</text>
</g>
<!-- 2 -->
<g id="node6" class="node">
<title>2</title>
<polygon fill="#b2dfee" stroke="#b2dfee" points="1488.5952,-108 1461.5952,-90 1488.5952,-72 1515.5952,-90 1488.5952,-108"/>
<text text-anchor="middle" x="1488.5952" y="-86.3" font-family="Times,serif" font-size="14.00" fill="#000000">2</text>
</g>
<!-- 1a&#45;&gt;2 -->
<g id="edge3" class="edge">
<title>1a&#45;&gt;2</title>
<path fill="none" stroke="#000000" d="M1451.4567,-144.5708C1458.3606,-134.4263 1467.1082,-121.5726 1474.3794,-110.8885"/>
<polygon fill="#000000" stroke="#000000" points="1477.3342,-112.7675 1480.067,-102.5312 1471.5472,-108.8291 1477.3342,-112.7675"/>
</g>
<!-- 1b -->
<g id="node5" class="node">
<title>1b</title>
<ellipse fill="#b2dfee" stroke="#b2dfee" cx="1536.5952" cy="-162" rx="39.7935" ry="18"/>
<text text-anchor="middle" x="1536.5952" y="-158.3" font-family="Times,serif" font-size="14.00" fill="#000000">Thomas</text>
</g>
<!-- 1b&#45;&gt;2 -->
<g id="edge4" class="edge">
<title>1b&#45;&gt;2</title>
<path fill="none" stroke="#000000" d="M1524.9757,-144.5708C1518.2127,-134.4263 1509.6436,-121.5726 1502.5208,-110.8885"/>
<polygon fill="#000000" stroke="#000000" points="1505.4085,-108.9102 1496.9493,-102.5312 1499.5841,-112.7931 1505.4085,-108.9102"/>
</g>
<!-- 2c1 -->
<g id="node13" class="node">
<title>2c1</title>
<ellipse fill="#b2dfee" stroke="#b2dfee" cx="1126.5952" cy="-18" rx="38.1938" ry="18"/>
<text text-anchor="middle" x="1126.5952" y="-14.3" font-family="Times,serif" font-size="14.00" fill="#000000">Folkero</text>
</g>
<!-- 2&#45;&gt;2c1 -->
<g id="edge9" class="edge">
<title>2&#45;&gt;2c1</title>
<path fill="none" stroke="#000000" d="M1464.9362,-87.5497C1412.0153,-81.7217 1280.3437,-65.2866 1173.5952,-36 1170.7908,-35.2306 1167.9212,-34.3571 1165.0508,-33.4194"/>
<polygon fill="#000000" stroke="#000000" points="1165.9766,-30.0355 1155.3818,-30.0428 1163.6687,-36.6441 1165.9766,-30.0355"/>
</g>
<!-- 2c2 -->
<g id="node15" class="node">
<title>2c2</title>
<ellipse fill="#b2dfee" stroke="#b2dfee" cx="1209.5952" cy="-18" rx="27" ry="18"/>
<text text-anchor="middle" x="1209.5952" y="-14.3" font-family="Times,serif" font-size="14.00" fill="#000000">Yda</text>
</g>
<!-- 2&#45;&gt;2c2 -->
<g id="edge11" class="edge">
<title>2&#45;&gt;2c2</title>
<path fill="none" stroke="#000000" d="M1465.9694,-86.8688C1422.3967,-80.4275 1324.1962,-63.9066 1245.5952,-36 1243.7184,-35.3337 1241.8134,-34.5926 1239.9096,-33.8018"/>
<polygon fill="#000000" stroke="#000000" points="1241.0904,-30.4941 1230.5379,-29.5473 1238.1968,-36.868 1241.0904,-30.4941"/>
</g>
<!-- 2c3 -->
<g id="node21" class="node">
<title>2c3</title>
<ellipse fill="#ffa500" stroke="#ffa500" cx="1307.5952" cy="-18" rx="53.0913" ry="18"/>
<text text-anchor="middle" x="1307.5952" y="-14.3" font-family="Times,serif" font-size="14.00" fill="#000000">Ghisebrecht</text>
</g>
<!-- 2&#45;&gt;2c3 -->
<g id="edge17" class="edge">
<title>2&#45;&gt;2c3</title>
<path fill="none" stroke="#000000" d="M1471.5671,-83.2264C1444.3894,-72.4154 1390.3405,-50.9153 1351.7247,-35.5543"/>
<polygon fill="#000000" stroke="#000000" points="1352.8509,-32.2356 1342.2654,-31.7915 1350.2636,-38.7399 1352.8509,-32.2356"/>
</g>
<!-- 2c4 -->
<g id="node25" class="node">
<title>2c4</title>
<ellipse fill="#b2dfee" stroke="#b2dfee" cx="1429.5952" cy="-18" rx="50.8918" ry="18"/>
<text text-anchor="middle" x="1429.5952" y="-14.3" font-family="Times,serif" font-size="14.00" fill="#000000">Amalburga</text>
</g>
<!-- 2&#45;&gt;2c4 -->
<g id="edge21" class="edge">
<title>2&#45;&gt;2c4</title>
<path fill="none" stroke="#000000" d="M1478.8525,-78.1107C1471.0874,-68.6346 1459.9421,-55.0335 1450.2166,-43.1651"/>
<polygon fill="#000000" stroke="#000000" points="1452.8148,-40.8137 1443.7693,-35.2973 1447.4004,-45.2505 1452.8148,-40.8137"/>
</g>
<!-- 2c5 -->
<g id="node29" class="node">
<title>2c5</title>
<ellipse fill="#ffa500" stroke="#ffa500" cx="1547.5952" cy="-18" rx="49.2915" ry="18"/>
<text text-anchor="middle" x="1547.5952" y="-14.3" font-family="Times,serif" font-size="14.00" fill="#000000">Lambrecht</text>
</g>
<!-- 2&#45;&gt;2c5 -->
<g id="edge25" class="edge">
<title>2&#45;&gt;2c5</title>
<path fill="none" stroke="#000000" d="M1498.3378,-78.1107C1506.1029,-68.6346 1517.2482,-55.0335 1526.9737,-43.1651"/>
<polygon fill="#000000" stroke="#000000" points="1529.7899,-45.2505 1533.421,-35.2973 1524.3755,-40.8137 1529.7899,-45.2505"/>
</g>
<!-- 2c6 -->
<g id="node33" class="node">
<title>2c6</title>
<ellipse fill="#b2dfee" stroke="#b2dfee" cx="1642.5952" cy="-18" rx="27.0966" ry="18"/>
<text text-anchor="middle" x="1642.5952" y="-14.3" font-family="Times,serif" font-size="14.00" fill="#000000">Ever</text>
</g>
<!-- 2&#45;&gt;2c6 -->
<g id="edge29" class="edge">
<title>2&#45;&gt;2c6</title>
<path fill="none" stroke="#000000" d="M1504.9216,-82.5916C1527.5798,-72.2812 1569.8129,-52.9591 1605.5952,-36 1607.3864,-35.151 1609.2242,-34.2746 1611.0772,-33.3866"/>
<polygon fill="#000000" stroke="#000000" points="1612.84,-36.4223 1620.3257,-28.9246 1609.7982,-30.1177 1612.84,-36.4223"/>
</g>
<!-- 2c7 -->
<g id="node36" class="node">
<title>2c7</title>
<ellipse fill="#ffa500" stroke="#ffa500" cx="1728.5952" cy="-18" rx="40.0939" ry="18"/>
<text text-anchor="middle" x="1728.5952" y="-14.3" font-family="Times,serif" font-size="14.00" fill="#000000">Siburgis</text>
</g>
<!-- 2&#45;&gt;2c7 -->
<g id="edge32" class="edge">
<title>2&#45;&gt;2c7</title>
<path fill="none" stroke="#000000" d="M1508.1475,-84.9182C1542.7383,-75.8222 1616.8962,-55.8477 1678.5952,-36 1681.6691,-35.0112 1684.8371,-33.9562 1688.016,-32.8718"/>
<polygon fill="#000000" stroke="#000000" points="1689.2106,-36.162 1697.5022,-29.5665 1686.9074,-29.5518 1689.2106,-36.162"/>
</g>
<!-- 2c8 -->
<g id="node38" class="node">
<title>2c8</title>
<ellipse fill="#b2dfee" stroke="#b2dfee" cx="1817.5952" cy="-18" rx="30.5947" ry="18"/>
<text text-anchor="middle" x="1817.5952" y="-14.3" font-family="Times,serif" font-size="14.00" fill="#000000">Grote</text>
</g>
<!-- 2&#45;&gt;2c8 -->
<g id="edge34" class="edge">
<title>2&#45;&gt;2c8</title>
<path fill="none" stroke="#000000" d="M1512.2818,-87.5103C1562.2294,-81.8422 1681.6468,-66.079 1777.5952,-36 1779.8637,-35.2888 1782.1737,-34.4835 1784.4815,-33.6174"/>
<polygon fill="#000000" stroke="#000000" points="1785.9041,-36.8172 1793.8432,-29.8014 1783.2618,-30.335 1785.9041,-36.8172"/>
</g>
<!-- 2a -->
<g id="node7" class="node">
<title>2a</title>
<ellipse fill="#b2dfee" stroke="#b2dfee" cx="2192.5952" cy="-162" rx="27" ry="18"/>
<text text-anchor="middle" x="2192.5952" y="-158.3" font-family="Times,serif" font-size="14.00" fill="#000000">Riet</text>
</g>
<!-- 3 -->
<g id="node9" class="node">
<title>3</title>
<polygon fill="#b2dfee" stroke="#b2dfee" points="2237.5952,-108 2210.5952,-90 2237.5952,-72 2264.5952,-90 2237.5952,-108"/>
<text text-anchor="middle" x="2237.5952" y="-86.3" font-family="Times,serif" font-size="14.00" fill="#000000">3</text>
</g>
<!-- 2a&#45;&gt;3 -->
<g id="edge5" class="edge">
<title>2a&#45;&gt;3</title>
<path fill="none" stroke="#000000" d="M2203.0322,-145.3008C2209.3608,-135.1749 2217.4973,-122.1566 2224.2858,-111.2949"/>
<polygon fill="#000000" stroke="#000000" points="2227.2699,-113.1242 2229.6019,-102.7892 2221.3339,-109.4142 2227.2699,-113.1242"/>
</g>
<!-- 2b -->
<g id="node8" class="node">
<title>2b</title>
<ellipse fill="#b2dfee" stroke="#b2dfee" cx="2281.5952" cy="-162" rx="44.393" ry="18"/>
<text text-anchor="middle" x="2281.5952" y="-158.3" font-family="Times,serif" font-size="14.00" fill="#000000">Menzone</text>
</g>
<!-- 2b&#45;&gt;3 -->
<g id="edge6" class="edge">
<title>2b&#45;&gt;3</title>
<path fill="none" stroke="#000000" d="M2270.7187,-144.2022C2264.6564,-134.2821 2257.0648,-121.8595 2250.6794,-111.4106"/>
<polygon fill="#000000" stroke="#000000" points="2253.6482,-109.5565 2245.4472,-102.8488 2247.6753,-113.2067 2253.6482,-109.5565"/>
</g>
<!-- 3c1 -->
<g id="node14" class="node">
<title>3c1</title>
<ellipse fill="#b2dfee" stroke="#b2dfee" cx="1902.5952" cy="-18" rx="36.2938" ry="18"/>
<text text-anchor="middle" x="1902.5952" y="-14.3" font-family="Times,serif" font-size="14.00" fill="#000000">Hodine</text>
</g>
<!-- 3&#45;&gt;3c1 -->
<g id="edge10" class="edge">
<title>3&#45;&gt;3c1</title>
<path fill="none" stroke="#000000" d="M2214.3034,-87.2432C2164.5963,-81.0173 2044.7364,-64.1757 1947.5952,-36 1944.9586,-35.2353 1942.2633,-34.3731 1939.5669,-33.4508"/>
<polygon fill="#000000" stroke="#000000" points="1940.4949,-30.0635 1929.9012,-29.9139 1938.0894,-36.6372 1940.4949,-30.0635"/>
</g>
<!-- 3c2 -->
<g id="node16" class="node">
<title>3c2</title>
<ellipse fill="#b2dfee" stroke="#b2dfee" cx="1999.5952" cy="-18" rx="42.7926" ry="18"/>
<text text-anchor="middle" x="1999.5952" y="-14.3" font-family="Times,serif" font-size="14.00" fill="#000000">Blankard</text>
</g>
<!-- 3&#45;&gt;3c2 -->
<g id="edge12" class="edge">
<title>3&#45;&gt;3c2</title>
<path fill="none" stroke="#000000" d="M2218.2187,-84.7234C2184.2933,-75.4073 2111.9976,-55.2088 2051.5952,-36 2048.4998,-35.0156 2045.3094,-33.9752 2042.1038,-32.911"/>
<polygon fill="#000000" stroke="#000000" points="2043.1154,-29.5586 2032.5213,-29.6794 2040.8784,-36.1915 2043.1154,-29.5586"/>
</g>
<!-- 3c3 -->
<g id="node18" class="node">
<title>3c3</title>
<ellipse fill="#b2dfee" stroke="#b2dfee" cx="2093.5952" cy="-18" rx="33.2948" ry="18"/>
<text text-anchor="middle" x="2093.5952" y="-14.3" font-family="Times,serif" font-size="14.00" fill="#000000">Gloria</text>
</g>
<!-- 3&#45;&gt;3c3 -->
<g id="edge14" class="edge">
<title>3&#45;&gt;3c3</title>
<path fill="none" stroke="#000000" d="M2221.9105,-82.1577C2199.3496,-70.8772 2157.1758,-49.7903 2127.3453,-34.8751"/>
<polygon fill="#000000" stroke="#000000" points="2128.6439,-31.6113 2118.1343,-30.2696 2125.5133,-37.8723 2128.6439,-31.6113"/>
</g>
<!-- 3c4 -->
<g id="node22" class="node">
<title>3c4</title>
<ellipse fill="#b2dfee" stroke="#b2dfee" cx="2184.5952" cy="-18" rx="39.7935" ry="18"/>
<text text-anchor="middle" x="2184.5952" y="-14.3" font-family="Times,serif" font-size="14.00" fill="#000000">Amilius</text>
</g>
<!-- 3&#45;&gt;3c4 -->
<g id="edge18" class="edge">
<title>3&#45;&gt;3c4</title>
<path fill="none" stroke="#000000" d="M2228.6044,-77.7862C2221.665,-68.359 2211.8261,-54.9929 2203.2105,-43.2887"/>
<polygon fill="#000000" stroke="#000000" points="2205.959,-41.1186 2197.2121,-35.14 2200.3217,-45.2683 2205.959,-41.1186"/>
</g>
<!-- 3c5 -->
<g id="node30" class="node">
<title>3c5</title>
<ellipse fill="#b2dfee" stroke="#b2dfee" cx="2290.5952" cy="-18" rx="48.1917" ry="18"/>
<text text-anchor="middle" x="2290.5952" y="-14.3" font-family="Times,serif" font-size="14.00" fill="#000000">Remsindis</text>
</g>
<!-- 3&#45;&gt;3c5 -->
<g id="edge26" class="edge">
<title>3&#45;&gt;3c5</title>
<path fill="none" stroke="#000000" d="M2246.5859,-77.7862C2253.4778,-68.4236 2263.2296,-55.1758 2271.8026,-43.5295"/>
<polygon fill="#000000" stroke="#000000" points="2274.6695,-45.5388 2277.7791,-35.4105 2269.0322,-41.3891 2274.6695,-45.5388"/>
</g>
<!-- 3c6 -->
<g id="node41" class="node">
<title>3c6</title>
<ellipse fill="#b2dfee" stroke="#b2dfee" cx="2402.5952" cy="-18" rx="45.4919" ry="18"/>
<text text-anchor="middle" x="2402.5952" y="-14.3" font-family="Times,serif" font-size="14.00" fill="#000000">Clarebout</text>
</g>
<!-- 3&#45;&gt;3c6 -->
<g id="edge37" class="edge">
<title>3&#45;&gt;3c6</title>
<path fill="none" stroke="#000000" d="M2254.0192,-82.8331C2279.1285,-71.8764 2327.8043,-50.636 2362.6007,-35.4521"/>
<polygon fill="#000000" stroke="#000000" points="2364.2503,-38.5511 2372.0159,-31.3437 2361.4507,-32.1353 2364.2503,-38.5511"/>
</g>
<!-- 3c7 -->
<g id="node42" class="node">
<title>3c7</title>
<ellipse fill="#b2dfee" stroke="#b2dfee" cx="2500.5952" cy="-18" rx="34.394" ry="18"/>
<text text-anchor="middle" x="2500.5952" y="-14.3" font-family="Times,serif" font-size="14.00" fill="#000000">Soeten</text>
</g>
<!-- 3&#45;&gt;3c7 -->
<g id="edge38" class="edge">
<title>3&#45;&gt;3c7</title>
<path fill="none" stroke="#000000" d="M2258.7179,-85.8686C2298.1199,-77.9257 2385.2952,-59.2359 2456.5952,-36 2459.1553,-35.1657 2461.7775,-34.2517 2464.4044,-33.2918"/>
<polygon fill="#000000" stroke="#000000" points="2465.7511,-36.524 2473.8352,-29.6758 2463.2449,-29.988 2465.7511,-36.524"/>
</g>
<!-- 3c8 -->
<g id="node45" class="node">
<title>3c8</title>
<ellipse fill="#b2dfee" stroke="#b2dfee" cx="2597.5952" cy="-18" rx="44.393" ry="18"/>
<text text-anchor="middle" x="2597.5952" y="-14.3" font-family="Times,serif" font-size="14.00" fill="#000000">Bartrarde</text>
</g>
<!-- 3&#45;&gt;3c8 -->
<g id="edge41" class="edge">
<title>3&#45;&gt;3c8</title>
<path fill="none" stroke="#000000" d="M2260.4868,-87.1336C2311.7111,-80.465 2439.2714,-62.4396 2543.5952,-36 2547.2083,-35.0843 2550.9291,-34.0477 2554.6472,-32.9456"/>
<polygon fill="#000000" stroke="#000000" points="2555.896,-36.2227 2564.4077,-29.9138 2553.8195,-29.5378 2555.896,-36.2227"/>
</g>
<!-- 3a -->
<g id="node10" class="node">
<title>3a</title>
<ellipse fill="#ffa500" stroke="#ffa500" cx="3019.5952" cy="-162" rx="54.6905" ry="18"/>
<text text-anchor="middle" x="3019.5952" y="-158.3" font-family="Times,serif" font-size="14.00" fill="#000000">Segherarden</text>
</g>
<!-- 4 -->
<g id="node12" class="node">
<title>4</title>
<polygon fill="#b2dfee" stroke="#b2dfee" points="3074.5952,-108 3047.5952,-90 3074.5952,-72 3101.5952,-90 3074.5952,-108"/>
<text text-anchor="middle" x="3074.5952" y="-86.3" font-family="Times,serif" font-size="14.00" fill="#000000">4</text>
</g>
<!-- 3a&#45;&gt;4 -->
<g id="edge7" class="edge">
<title>3a&#45;&gt;4</title>
<path fill="none" stroke="#000000" d="M3033.1907,-144.2022C3041.1225,-133.8188 3051.1485,-120.6938 3059.3479,-109.96"/>
<polygon fill="#000000" stroke="#000000" points="3062.168,-112.034 3065.4571,-101.9626 3056.6053,-107.7846 3062.168,-112.034"/>
</g>
<!-- 3b -->
<g id="node11" class="node">
<title>3b</title>
<ellipse fill="#ffa500" stroke="#ffa500" cx="3130.5952" cy="-162" rx="38.1938" ry="18"/>
<text text-anchor="middle" x="3130.5952" y="-158.3" font-family="Times,serif" font-size="14.00" fill="#000000">Willem</text>
</g>
<!-- 3b&#45;&gt;4 -->
<g id="edge8" class="edge">
<title>3b&#45;&gt;4</title>
<path fill="none" stroke="#000000" d="M3117.3239,-144.937C3109.2592,-134.5681 3098.9156,-121.2692 3090.4255,-110.3532"/>
<polygon fill="#000000" stroke="#000000" points="3092.995,-107.956 3084.0928,-102.2113 3087.4695,-112.2536 3092.995,-107.956"/>
</g>
<!-- 4c1 -->
<g id="node19" class="node">
<title>4c1</title>
<ellipse fill="#b2dfee" stroke="#b2dfee" cx="2701.5952" cy="-18" rx="41.6928" ry="18"/>
<text text-anchor="middle" x="2701.5952" y="-14.3" font-family="Times,serif" font-size="14.00" fill="#000000">Itsburgis</text>
</g>
<!-- 4&#45;&gt;4c1 -->
<g id="edge15" class="edge">
<title>4&#45;&gt;4c1</title>
<path fill="none" stroke="#000000" d="M3051.185,-87.5502C2997.5467,-81.6205 2861.8852,-64.8209 2751.5952,-36 2748.471,-35.1836 2745.2665,-34.254 2742.062,-33.2573"/>
<polygon fill="#000000" stroke="#000000" points="2743.1222,-29.9216 2732.529,-30.1127 2740.9292,-36.5693 2743.1222,-29.9216"/>
</g>
<!-- 4c2 -->
<g id="node23" class="node">
<title>4c2</title>
<ellipse fill="#ffa500" stroke="#ffa500" cx="2798.5952" cy="-18" rx="37.8943" ry="18"/>
<text text-anchor="middle" x="2798.5952" y="-14.3" font-family="Times,serif" font-size="14.00" fill="#000000">Thedwi</text>
</g>
<!-- 4&#45;&gt;4c2 -->
<g id="edge19" class="edge">
<title>4&#45;&gt;4c2</title>
<path fill="none" stroke="#000000" d="M3053.5042,-86.0131C3012.837,-78.1093 2920.9406,-59.1967 2845.5952,-36 2842.8159,-35.1443 2839.9649,-34.2069 2837.1078,-33.2235"/>
<polygon fill="#000000" stroke="#000000" points="2838.0601,-29.8466 2827.4657,-29.7545 2835.6904,-36.4332 2838.0601,-29.8466"/>
</g>
<!-- 4c3 -->
<g id="node26" class="node">
<title>4c3</title>
<ellipse fill="#ffa500" stroke="#ffa500" cx="2912.5952" cy="-18" rx="57.6901" ry="18"/>
<text text-anchor="middle" x="2912.5952" y="-14.3" font-family="Times,serif" font-size="14.00" fill="#000000">Ghoudekinen</text>
</g>
<!-- 4&#45;&gt;4c3 -->
<g id="edge22" class="edge">
<title>4&#45;&gt;4c3</title>
<path fill="none" stroke="#000000" d="M3058.1702,-82.7C3034.2005,-72.0468 2988.8216,-51.8784 2955.0731,-36.8791"/>
<polygon fill="#000000" stroke="#000000" points="2956.4498,-33.6609 2945.8901,-32.7978 2953.6068,-40.0576 2956.4498,-33.6609"/>
</g>
<!-- 4c4 -->
<g id="node31" class="node">
<title>4c4</title>
<ellipse fill="#b2dfee" stroke="#b2dfee" cx="3026.5952" cy="-18" rx="38.1938" ry="18"/>
<text text-anchor="middle" x="3026.5952" y="-14.3" font-family="Times,serif" font-size="14.00" fill="#000000">Iacobus</text>
</g>
<!-- 4&#45;&gt;4c4 -->
<g id="edge27" class="edge">
<title>4&#45;&gt;4c4</title>
<path fill="none" stroke="#000000" d="M3066.2342,-77.4586C3060.027,-68.1478 3051.3478,-55.129 3043.6926,-43.6462"/>
<polygon fill="#000000" stroke="#000000" points="3046.5554,-41.6306 3038.0962,-35.2515 3040.731,-45.5135 3046.5554,-41.6306"/>
</g>
<!-- 4c5 -->
<g id="node34" class="node">
<title>4c5</title>
<ellipse fill="#b2dfee" stroke="#b2dfee" cx="3123.5952" cy="-18" rx="40.8928" ry="18"/>
<text text-anchor="middle" x="3123.5952" y="-14.3" font-family="Times,serif" font-size="14.00" fill="#000000">Bollarde</text>
</g>
<!-- 4&#45;&gt;4c5 -->
<g id="edge30" class="edge">
<title>4&#45;&gt;4c5</title>
<path fill="none" stroke="#000000" d="M3083.1303,-77.4586C3089.4668,-68.1478 3098.3268,-55.129 3106.1415,-43.6462"/>
<polygon fill="#000000" stroke="#000000" points="3109.1218,-45.4879 3111.8545,-35.2515 3103.3348,-41.5495 3109.1218,-45.4879"/>
</g>
<!-- 4c6 -->
<g id="node39" class="node">
<title>4c6</title>
<ellipse fill="#ffa500" stroke="#ffa500" cx="3215.5952" cy="-18" rx="33.2948" ry="18"/>
<text text-anchor="middle" x="3215.5952" y="-14.3" font-family="Times,serif" font-size="14.00" fill="#000000">Gerart</text>
</g>
<!-- 4&#45;&gt;4c6 -->
<g id="edge35" class="edge">
<title>4&#45;&gt;4c6</title>
<path fill="none" stroke="#000000" d="M3089.953,-82.1577C3111.9795,-70.9101 3153.0985,-49.9132 3182.2923,-35.0057"/>
<polygon fill="#000000" stroke="#000000" points="3183.9982,-38.0646 3191.3125,-30.3996 3180.8147,-31.8303 3183.9982,-38.0646"/>
</g>
<!-- 4c7 -->
<g id="node43" class="node">
<title>4c7</title>
<ellipse fill="#ffa500" stroke="#ffa500" cx="3308.5952" cy="-18" rx="42.4939" ry="18"/>
<text text-anchor="middle" x="3308.5952" y="-14.3" font-family="Times,serif" font-size="14.00" fill="#000000">Kornillis</text>
</g>
<!-- 4&#45;&gt;4c7 -->
<g id="edge39" class="edge">
<title>4&#45;&gt;4c7</title>
<path fill="none" stroke="#000000" d="M3093.9304,-84.6542C3127.4269,-75.3132 3198.3478,-55.1823 3257.5952,-36 3260.5374,-35.0474 3263.5669,-34.0419 3266.6123,-33.013"/>
<polygon fill="#000000" stroke="#000000" points="3267.9862,-36.2419 3276.3066,-29.6827 3265.7119,-29.6216 3267.9862,-36.2419"/>
</g>
<!-- 4c8 -->
<g id="node46" class="node">
<title>4c8</title>
<ellipse fill="#ffa500" stroke="#ffa500" cx="3401.5952" cy="-18" rx="32.4942" ry="18"/>
<text text-anchor="middle" x="3401.5952" y="-14.3" font-family="Times,serif" font-size="14.00" fill="#000000">Duker</text>
</g>
<!-- 4&#45;&gt;4c8 -->
<g id="edge42" class="edge">
<title>4&#45;&gt;4c8</title>
<path fill="none" stroke="#000000" d="M3097.9108,-87.3297C3147.0852,-81.3197 3264.7035,-64.9456 3359.5952,-36 3362.0517,-35.2506 3364.5587,-34.4029 3367.064,-33.4938"/>
<polygon fill="#000000" stroke="#000000" points="3368.5707,-36.6627 3376.6086,-29.7603 3366.0207,-30.1437 3368.5707,-36.6627"/>
</g>
</g>
</svg>
