<?xml version="1.0" encoding="UTF-8" standalone="no"?>
<!DOCTYPE svg PUBLIC "-//W3C//DTD SVG 1.1//EN"
 "http://www.w3.org/Graphics/SVG/1.1/DTD/svg11.dtd">
<!-- Generated by graphviz version 2.40.1 (20161225.0304)
 -->
<!-- Title: Families Pages: 1 -->
<svg width="2315pt" height="188pt"
 viewBox="0.00 0.00 2314.64 188.00" xmlns="http://www.w3.org/2000/svg" xmlns:xlink="http://www.w3.org/1999/xlink">
<g id="graph0" class="graph" transform="scale(1 1) rotate(0) translate(4 184)">
<title>Families</title>
<polygon fill="#ffffff" stroke="transparent" points="-4,4 -4,-184 2310.6419,-184 2310.6419,4 -4,4"/>
<!-- 0a -->
<g id="node1" class="node">
<title>0a</title>
<ellipse fill="#b2dfee" stroke="#b2dfee" cx="198.3466" cy="-162" rx="36.2938" ry="18"/>
<text text-anchor="middle" x="198.3466" y="-158.3" font-family="Times,serif" font-size="14.00" fill="#000000">Truden</text>
</g>
<!-- 1 -->
<g id="node3" class="node">
<title>1</title>
<polygon fill="#b2dfee" stroke="#b2dfee" points="242.3466,-108 215.3466,-90 242.3466,-72 269.3466,-90 242.3466,-108"/>
<text text-anchor="middle" x="242.3466" y="-86.3" font-family="Times,serif" font-size="14.00" fill="#000000">1</text>
</g>
<!-- 0a&#45;&gt;1 -->
<g id="edge1" class="edge">
<title>0a&#45;&gt;1</title>
<path fill="none" stroke="#000000" d="M208.9978,-144.5708C215.0565,-134.6565 222.6966,-122.1546 229.1349,-111.6191"/>
<polygon fill="#000000" stroke="#000000" points="232.1855,-113.3393 234.4136,-102.9813 226.2125,-109.6891 232.1855,-113.3393"/>
</g>
<!-- 0b -->
<g id="node2" class="node">
<title>0b</title>
<ellipse fill="#b2dfee" stroke="#b2dfee" cx="287.3466" cy="-162" rx="34.394" ry="18"/>
<text text-anchor="middle" x="287.3466" y="-158.3" font-family="Times,serif" font-size="14.00" fill="#000000">Boidin</text>
</g>
<!-- 0b&#45;&gt;1 -->
<g id="edge2" class="edge">
<title>0b&#45;&gt;1</title>
<path fill="none" stroke="#000000" d="M276.4534,-144.5708C270.2569,-134.6565 262.4432,-122.1546 255.8585,-111.6191"/>
<polygon fill="#000000" stroke="#000000" points="258.728,-109.6063 250.4599,-102.9813 252.792,-113.3163 258.728,-109.6063"/>
</g>
<!-- 1c1 -->
<g id="node13" class="node">
<title>1c1</title>
<ellipse fill="#b2dfee" stroke="#b2dfee" cx="38.3466" cy="-18" rx="38.1938" ry="18"/>
<text text-anchor="middle" x="38.3466" y="-14.3" font-family="Times,serif" font-size="14.00" fill="#000000">Coclike</text>
</g>
<!-- 1&#45;&gt;1c1 -->
<g id="edge9" class="edge">
<title>1&#45;&gt;1c1</title>
<path fill="none" stroke="#000000" d="M223.9046,-83.8863C194.4925,-74.0844 135.1946,-54.1119 85.3466,-36 82.7789,-35.0671 80.1374,-34.0935 77.4784,-33.1032"/>
<polygon fill="#000000" stroke="#000000" points="78.4651,-29.7349 67.8732,-29.4862 75.9982,-36.2858 78.4651,-29.7349"/>
</g>
<!-- 1c2 -->
<g id="node16" class="node">
<title>1c2</title>
<ellipse fill="#b2dfee" stroke="#b2dfee" cx="135.3466" cy="-18" rx="40.8928" ry="18"/>
<text text-anchor="middle" x="135.3466" y="-14.3" font-family="Times,serif" font-size="14.00" fill="#000000">Vroeden</text>
</g>
<!-- 1&#45;&gt;1c2 -->
<g id="edge12" class="edge">
<title>1&#45;&gt;1c2</title>
<path fill="none" stroke="#000000" d="M228.795,-80.8812C213.2461,-70.4183 187.2377,-52.9174 166.6016,-39.0314"/>
<polygon fill="#000000" stroke="#000000" points="168.3832,-36.0117 158.1327,-33.3327 164.4753,-41.8193 168.3832,-36.0117"/>
</g>
<!-- 1c3 -->
<g id="node20" class="node">
<title>1c3</title>
<ellipse fill="#b2dfee" stroke="#b2dfee" cx="242.3466" cy="-18" rx="48.1917" ry="18"/>
<text text-anchor="middle" x="242.3466" y="-14.3" font-family="Times,serif" font-size="14.00" fill="#000000">Remsindis</text>
</g>
<!-- 1&#45;&gt;1c3 -->
<g id="edge16" class="edge">
<title>1&#45;&gt;1c3</title>
<path fill="none" stroke="#000000" d="M242.3466,-71.8314C242.3466,-64.131 242.3466,-54.9743 242.3466,-46.4166"/>
<polygon fill="#000000" stroke="#000000" points="245.8467,-46.4132 242.3466,-36.4133 238.8467,-46.4133 245.8467,-46.4132"/>
</g>
<!-- 1c4 -->
<g id="node22" class="node">
<title>1c4</title>
<ellipse fill="#b2dfee" stroke="#b2dfee" cx="343.3466" cy="-18" rx="35.194" ry="18"/>
<text text-anchor="middle" x="343.3466" y="-14.3" font-family="Times,serif" font-size="14.00" fill="#000000">Rodolf</text>
</g>
<!-- 1&#45;&gt;1c4 -->
<g id="edge18" class="edge">
<title>1&#45;&gt;1c4</title>
<path fill="none" stroke="#000000" d="M255.5506,-80.5873C270.4557,-69.9618 295.1545,-52.3547 314.5651,-38.5175"/>
<polygon fill="#000000" stroke="#000000" points="316.6749,-41.3118 322.786,-32.6571 312.6115,-35.6119 316.6749,-41.3118"/>
</g>
<!-- 1c5 -->
<g id="node29" class="node">
<title>1c5</title>
<ellipse fill="#b2dfee" stroke="#b2dfee" cx="434.3466" cy="-18" rx="38.1938" ry="18"/>
<text text-anchor="middle" x="434.3466" y="-14.3" font-family="Times,serif" font-size="14.00" fill="#000000">Michiel</text>
</g>
<!-- 1&#45;&gt;1c5 -->
<g id="edge25" class="edge">
<title>1&#45;&gt;1c5</title>
<path fill="none" stroke="#000000" d="M259.7755,-83.5684C287.0239,-73.4999 341.3587,-53.369 387.3466,-36 389.8652,-35.0487 392.4585,-34.0657 395.0718,-33.0723"/>
<polygon fill="#000000" stroke="#000000" points="396.4291,-36.3007 404.5264,-29.4681 393.9356,-29.7599 396.4291,-36.3007"/>
</g>
<!-- 1a -->
<g id="node4" class="node">
<title>1a</title>
<ellipse fill="#b2dfee" stroke="#b2dfee" cx="696.3466" cy="-162" rx="47.3916" ry="18"/>
<text text-anchor="middle" x="696.3466" y="-158.3" font-family="Times,serif" font-size="14.00" fill="#000000">Ricmoden</text>
</g>
<!-- 2 -->
<g id="node6" class="node">
<title>2</title>
<polygon fill="#b2dfee" stroke="#b2dfee" points="753.3466,-108 726.3466,-90 753.3466,-72 780.3466,-90 753.3466,-108"/>
<text text-anchor="middle" x="753.3466" y="-86.3" font-family="Times,serif" font-size="14.00" fill="#000000">2</text>
</g>
<!-- 1a&#45;&gt;2 -->
<g id="edge3" class="edge">
<title>1a&#45;&gt;2</title>
<path fill="none" stroke="#000000" d="M710.1447,-144.5708C718.3601,-134.1935 728.8198,-120.9812 737.3895,-110.1564"/>
<polygon fill="#000000" stroke="#000000" points="740.3151,-112.0996 743.778,-102.0867 734.8267,-107.7547 740.3151,-112.0996"/>
</g>
<!-- 1b -->
<g id="node5" class="node">
<title>1b</title>
<ellipse fill="#b2dfee" stroke="#b2dfee" cx="810.3466" cy="-162" rx="48.1917" ry="18"/>
<text text-anchor="middle" x="810.3466" y="-158.3" font-family="Times,serif" font-size="14.00" fill="#000000">Arnulphus</text>
</g>
<!-- 1b&#45;&gt;2 -->
<g id="edge4" class="edge">
<title>1b&#45;&gt;2</title>
<path fill="none" stroke="#000000" d="M796.5485,-144.5708C788.3331,-134.1935 777.8734,-120.9812 769.3037,-110.1564"/>
<polygon fill="#000000" stroke="#000000" points="771.8665,-107.7547 762.9152,-102.0867 766.3781,-112.0996 771.8665,-107.7547"/>
</g>
<!-- 2c1 -->
<g id="node17" class="node">
<title>2c1</title>
<ellipse fill="#b2dfee" stroke="#b2dfee" cx="535.3466" cy="-18" rx="44.393" ry="18"/>
<text text-anchor="middle" x="535.3466" y="-14.3" font-family="Times,serif" font-size="14.00" fill="#000000">Amelgeir</text>
</g>
<!-- 2&#45;&gt;2c1 -->
<g id="edge13" class="edge">
<title>2&#45;&gt;2c1</title>
<path fill="none" stroke="#000000" d="M735.0123,-84.0732C704.5337,-74.2041 641.5301,-53.7333 588.3466,-36 585.2584,-34.9703 582.0708,-33.9018 578.8628,-32.8224"/>
<polygon fill="#000000" stroke="#000000" points="579.8504,-29.4618 569.2562,-29.579 577.6112,-36.094 579.8504,-29.4618"/>
</g>
<!-- 2c2 -->
<g id="node21" class="node">
<title>2c2</title>
<ellipse fill="#b2dfee" stroke="#b2dfee" cx="630.3466" cy="-18" rx="33.2948" ry="18"/>
<text text-anchor="middle" x="630.3466" y="-14.3" font-family="Times,serif" font-size="14.00" fill="#000000">Tielen</text>
</g>
<!-- 2&#45;&gt;2c2 -->
<g id="edge17" class="edge">
<title>2&#45;&gt;2c2</title>
<path fill="none" stroke="#000000" d="M738.7539,-81.4579C719.9376,-70.4435 686.6984,-50.9864 661.9707,-36.5117"/>
<polygon fill="#000000" stroke="#000000" points="663.6864,-33.4605 653.2881,-31.4292 660.1502,-39.5016 663.6864,-33.4605"/>
</g>
<!-- 2c3 -->
<g id="node23" class="node">
<title>2c3</title>
<ellipse fill="#b2dfee" stroke="#b2dfee" cx="713.3466" cy="-18" rx="31.6951" ry="18"/>
<text text-anchor="middle" x="713.3466" y="-14.3" font-family="Times,serif" font-size="14.00" fill="#000000">Lucas</text>
</g>
<!-- 2&#45;&gt;2c3 -->
<g id="edge19" class="edge">
<title>2&#45;&gt;2c3</title>
<path fill="none" stroke="#000000" d="M746.01,-76.7941C740.9353,-67.6597 734.0129,-55.1993 727.8467,-44.1002"/>
<polygon fill="#000000" stroke="#000000" points="730.8182,-42.2419 722.9022,-35.2 724.6991,-45.6414 730.8182,-42.2419"/>
</g>
<!-- 2c4 -->
<g id="node26" class="node">
<title>2c4</title>
<ellipse fill="#b2dfee" stroke="#b2dfee" cx="793.3466" cy="-18" rx="29.795" ry="18"/>
<text text-anchor="middle" x="793.3466" y="-14.3" font-family="Times,serif" font-size="14.00" fill="#000000">Geile</text>
</g>
<!-- 2&#45;&gt;2c4 -->
<g id="edge22" class="edge">
<title>2&#45;&gt;2c4</title>
<path fill="none" stroke="#000000" d="M760.6832,-76.7941C765.7579,-67.6597 772.6803,-55.1993 778.8465,-44.1002"/>
<polygon fill="#000000" stroke="#000000" points="781.9941,-45.6414 783.791,-35.2 775.875,-42.2419 781.9941,-45.6414"/>
</g>
<!-- 2c5 -->
<g id="node32" class="node">
<title>2c5</title>
<ellipse fill="#b2dfee" stroke="#b2dfee" cx="871.3466" cy="-18" rx="29.795" ry="18"/>
<text text-anchor="middle" x="871.3466" y="-14.3" font-family="Times,serif" font-size="14.00" fill="#000000">Berta</text>
</g>
<!-- 2&#45;&gt;2c5 -->
<g id="edge28" class="edge">
<title>2&#45;&gt;2c5</title>
<path fill="none" stroke="#000000" d="M767.8157,-81.1714C786.0422,-70.0502 817.824,-50.6579 841.3805,-36.2844"/>
<polygon fill="#000000" stroke="#000000" points="843.2472,-39.2455 849.9606,-31.0491 839.6011,-33.27 843.2472,-39.2455"/>
</g>
<!-- 2c6 -->
<g id="node36" class="node">
<title>2c6</title>
<ellipse fill="#b2dfee" stroke="#b2dfee" cx="964.3466" cy="-18" rx="44.6926" ry="18"/>
<text text-anchor="middle" x="964.3466" y="-14.3" font-family="Times,serif" font-size="14.00" fill="#000000">Thezonus</text>
</g>
<!-- 2&#45;&gt;2c6 -->
<g id="edge32" class="edge">
<title>2&#45;&gt;2c6</title>
<path fill="none" stroke="#000000" d="M771.3363,-83.8613C804.0184,-72.7091 874.0159,-48.8237 920.1199,-33.0916"/>
<polygon fill="#000000" stroke="#000000" points="921.5246,-36.3105 929.8584,-29.7685 919.2639,-29.6856 921.5246,-36.3105"/>
</g>
<!-- 2a -->
<g id="node7" class="node">
<title>2a</title>
<ellipse fill="#b2dfee" stroke="#b2dfee" cx="1266.3466" cy="-162" rx="32.4942" ry="18"/>
<text text-anchor="middle" x="1266.3466" y="-158.3" font-family="Times,serif" font-size="14.00" fill="#000000">Marie</text>
</g>
<!-- 3 -->
<g id="node9" class="node">
<title>3</title>
<polygon fill="#b2dfee" stroke="#b2dfee" points="1312.3466,-108 1285.3466,-90 1312.3466,-72 1339.3466,-90 1312.3466,-108"/>
<text text-anchor="middle" x="1312.3466" y="-86.3" font-family="Times,serif" font-size="14.00" fill="#000000">3</text>
</g>
<!-- 2a&#45;&gt;3 -->
<g id="edge5" class="edge">
<title>2a&#45;&gt;3</title>
<path fill="none" stroke="#000000" d="M1277.248,-144.937C1283.7239,-134.8007 1291.9888,-121.8644 1298.8715,-111.0914"/>
<polygon fill="#000000" stroke="#000000" points="1301.8238,-112.9713 1304.2583,-102.6599 1295.9249,-109.2025 1301.8238,-112.9713"/>
</g>
<!-- 2b -->
<g id="node8" class="node">
<title>2b</title>
<ellipse fill="#b2dfee" stroke="#b2dfee" cx="1357.3466" cy="-162" rx="40.0939" ry="18"/>
<text text-anchor="middle" x="1357.3466" y="-158.3" font-family="Times,serif" font-size="14.00" fill="#000000">Goeskin</text>
</g>
<!-- 2b&#45;&gt;3 -->
<g id="edge6" class="edge">
<title>2b&#45;&gt;3</title>
<path fill="none" stroke="#000000" d="M1346.4534,-144.5708C1340.2569,-134.6565 1332.4432,-122.1546 1325.8585,-111.6191"/>
<polygon fill="#000000" stroke="#000000" points="1328.728,-109.6063 1320.4599,-102.9813 1322.792,-113.3163 1328.728,-109.6063"/>
</g>
<!-- 3c1 -->
<g id="node14" class="node">
<title>3c1</title>
<ellipse fill="#b2dfee" stroke="#b2dfee" cx="1071.3466" cy="-18" rx="44.393" ry="18"/>
<text text-anchor="middle" x="1071.3466" y="-14.3" font-family="Times,serif" font-size="14.00" fill="#000000">Reynerus</text>
</g>
<!-- 3&#45;&gt;3c1 -->
<g id="edge10" class="edge">
<title>3&#45;&gt;3c1</title>
<path fill="none" stroke="#000000" d="M1293.0407,-84.7819C1258.8769,-75.4752 1185.594,-55.1847 1124.3466,-36 1121.24,-35.0269 1118.039,-34.0003 1114.8213,-32.9508"/>
<polygon fill="#000000" stroke="#000000" points="1115.7897,-29.5846 1105.1963,-29.7642 1113.5896,-36.2299 1115.7897,-29.5846"/>
</g>
<!-- 3c2 -->
<g id="node24" class="node">
<title>3c2</title>
<ellipse fill="#b2dfee" stroke="#b2dfee" cx="1173.3466" cy="-18" rx="40.0939" ry="18"/>
<text text-anchor="middle" x="1173.3466" y="-14.3" font-family="Times,serif" font-size="14.00" fill="#000000">Ermerut</text>
</g>
<!-- 3&#45;&gt;3c2 -->
<g id="edge20" class="edge">
<title>3&#45;&gt;3c2</title>
<path fill="none" stroke="#000000" d="M1296.9401,-82.0196C1275.8563,-71.0985 1237.3909,-51.174 1208.9521,-36.4431"/>
<polygon fill="#000000" stroke="#000000" points="1210.2209,-33.1587 1199.7316,-31.667 1207.0012,-39.3744 1210.2209,-33.1587"/>
</g>
<!-- 3c3 -->
<g id="node27" class="node">
<title>3c3</title>
<ellipse fill="#b2dfee" stroke="#b2dfee" cx="1268.3466" cy="-18" rx="37.0935" ry="18"/>
<text text-anchor="middle" x="1268.3466" y="-14.3" font-family="Times,serif" font-size="14.00" fill="#000000">splinter</text>
</g>
<!-- 3&#45;&gt;3c3 -->
<g id="edge23" class="edge">
<title>3&#45;&gt;3c3</title>
<path fill="none" stroke="#000000" d="M1304.4803,-77.1278C1298.863,-67.9359 1291.1137,-55.2553 1284.2317,-43.9939"/>
<polygon fill="#000000" stroke="#000000" points="1287.1567,-42.0681 1278.9557,-35.3603 1281.1838,-45.7183 1287.1567,-42.0681"/>
</g>
<!-- 3c4 -->
<g id="node30" class="node">
<title>3c4</title>
<ellipse fill="#b2dfee" stroke="#b2dfee" cx="1356.3466" cy="-18" rx="33.2948" ry="18"/>
<text text-anchor="middle" x="1356.3466" y="-14.3" font-family="Times,serif" font-size="14.00" fill="#000000">Gisele</text>
</g>
<!-- 3&#45;&gt;3c4 -->
<g id="edge26" class="edge">
<title>3&#45;&gt;3c4</title>
<path fill="none" stroke="#000000" d="M1320.2129,-77.1278C1325.8692,-67.872 1333.6872,-55.0791 1340.6047,-43.7594"/>
<polygon fill="#000000" stroke="#000000" points="1343.6729,-45.4509 1345.9009,-35.0929 1337.6999,-41.8007 1343.6729,-45.4509"/>
</g>
<!-- 3c5 -->
<g id="node33" class="node">
<title>3c5</title>
<ellipse fill="#b2dfee" stroke="#b2dfee" cx="1442.3466" cy="-18" rx="34.394" ry="18"/>
<text text-anchor="middle" x="1442.3466" y="-14.3" font-family="Times,serif" font-size="14.00" fill="#000000">Wybel</text>
</g>
<!-- 3&#45;&gt;3c5 -->
<g id="edge29" class="edge">
<title>3&#45;&gt;3c5</title>
<path fill="none" stroke="#000000" d="M1327.2593,-81.7407C1347.1853,-70.7047 1383.0457,-50.8436 1409.4584,-36.215"/>
<polygon fill="#000000" stroke="#000000" points="1411.3132,-39.1888 1418.3653,-31.2819 1407.9216,-33.0652 1411.3132,-39.1888"/>
</g>
<!-- 3c6 -->
<g id="node35" class="node">
<title>3c6</title>
<ellipse fill="#b2dfee" stroke="#b2dfee" cx="1545.3466" cy="-18" rx="50.8918" ry="18"/>
<text text-anchor="middle" x="1545.3466" y="-14.3" font-family="Times,serif" font-size="14.00" fill="#000000">Thidboldus</text>
</g>
<!-- 3&#45;&gt;3c6 -->
<g id="edge31" class="edge">
<title>3&#45;&gt;3c6</title>
<path fill="none" stroke="#000000" d="M1331.0201,-84.2296C1366.7305,-73.1947 1445.7191,-48.7862 1497.1846,-32.8827"/>
<polygon fill="#000000" stroke="#000000" points="1498.2525,-36.2161 1506.7734,-29.9196 1496.1858,-29.5281 1498.2525,-36.2161"/>
</g>
<!-- 3a -->
<g id="node10" class="node">
<title>3a</title>
<ellipse fill="#b2dfee" stroke="#b2dfee" cx="1911.3466" cy="-162" rx="40.0939" ry="18"/>
<text text-anchor="middle" x="1911.3466" y="-158.3" font-family="Times,serif" font-size="14.00" fill="#000000">Ermerut</text>
</g>
<!-- 4 -->
<g id="node12" class="node">
<title>4</title>
<polygon fill="#b2dfee" stroke="#b2dfee" points="1956.3466,-108 1929.3466,-90 1956.3466,-72 1983.3466,-90 1956.3466,-108"/>
<text text-anchor="middle" x="1956.3466" y="-86.3" font-family="Times,serif" font-size="14.00" fill="#000000">4</text>
</g>
<!-- 3a&#45;&gt;4 -->
<g id="edge7" class="edge">
<title>3a&#45;&gt;4</title>
<path fill="none" stroke="#000000" d="M1922.2398,-144.5708C1928.4363,-134.6565 1936.25,-122.1546 1942.8347,-111.6191"/>
<polygon fill="#000000" stroke="#000000" points="1945.9012,-113.3163 1948.2333,-102.9813 1939.9652,-109.6063 1945.9012,-113.3163"/>
</g>
<!-- 3b -->
<g id="node11" class="node">
<title>3b</title>
<ellipse fill="#b2dfee" stroke="#b2dfee" cx="2002.3466" cy="-162" rx="32.4942" ry="18"/>
<text text-anchor="middle" x="2002.3466" y="-158.3" font-family="Times,serif" font-size="14.00" fill="#000000">Strom</text>
</g>
<!-- 3b&#45;&gt;4 -->
<g id="edge8" class="edge">
<title>3b&#45;&gt;4</title>
<path fill="none" stroke="#000000" d="M1991.4452,-144.937C1984.9693,-134.8007 1976.7044,-121.8644 1969.8217,-111.0914"/>
<polygon fill="#000000" stroke="#000000" points="1972.7683,-109.2025 1964.4349,-102.6599 1966.8694,-112.9713 1972.7683,-109.2025"/>
</g>
<!-- 4c1 -->
<g id="node15" class="node">
<title>4c1</title>
<ellipse fill="#b2dfee" stroke="#b2dfee" cx="1644.3466" cy="-18" rx="30.5947" ry="18"/>
<text text-anchor="middle" x="1644.3466" y="-14.3" font-family="Times,serif" font-size="14.00" fill="#000000">Otger</text>
</g>
<!-- 4&#45;&gt;4c1 -->
<g id="edge11" class="edge">
<title>4&#45;&gt;4c1</title>
<path fill="none" stroke="#000000" d="M1933.2302,-87.3092C1885.5946,-81.3574 1773.4168,-65.2342 1683.3466,-36 1681.2143,-35.3079 1679.045,-34.5301 1676.8767,-33.6964"/>
<polygon fill="#000000" stroke="#000000" points="1678.0719,-30.4025 1667.4957,-29.7743 1675.3717,-36.8608 1678.0719,-30.4025"/>
</g>
<!-- 4c2 -->
<g id="node18" class="node">
<title>4c2</title>
<ellipse fill="#b2dfee" stroke="#b2dfee" cx="1735.3466" cy="-18" rx="42.7926" ry="18"/>
<text text-anchor="middle" x="1735.3466" y="-14.3" font-family="Times,serif" font-size="14.00" fill="#000000">Evergero</text>
</g>
<!-- 4&#45;&gt;4c2 -->
<g id="edge14" class="edge">
<title>4&#45;&gt;4c2</title>
<path fill="none" stroke="#000000" d="M1937.7939,-84.2317C1906.6359,-74.5086 1841.8527,-54.1389 1787.3466,-36 1784.2646,-34.9744 1781.0841,-33.9037 1777.8855,-32.8179"/>
<polygon fill="#000000" stroke="#000000" points="1778.9107,-29.4696 1768.3162,-29.5458 1776.6459,-36.0931 1778.9107,-29.4696"/>
</g>
<!-- 4c3 -->
<g id="node19" class="node">
<title>4c3</title>
<ellipse fill="#b2dfee" stroke="#b2dfee" cx="1848.3466" cy="-18" rx="51.9908" ry="18"/>
<text text-anchor="middle" x="1848.3466" y="-14.3" font-family="Times,serif" font-size="14.00" fill="#000000">Mewekinus</text>
</g>
<!-- 4&#45;&gt;4c3 -->
<g id="edge15" class="edge">
<title>4&#45;&gt;4c3</title>
<path fill="none" stroke="#000000" d="M1942.6683,-80.8812C1927.2721,-70.617 1901.7157,-53.5794 1881.0859,-39.8262"/>
<polygon fill="#000000" stroke="#000000" points="1882.8522,-36.7973 1872.5902,-34.1624 1878.9693,-42.6216 1882.8522,-36.7973"/>
</g>
<!-- 4c4 -->
<g id="node25" class="node">
<title>4c4</title>
<ellipse fill="#b2dfee" stroke="#b2dfee" cx="1956.3466" cy="-18" rx="37.8943" ry="18"/>
<text text-anchor="middle" x="1956.3466" y="-14.3" font-family="Times,serif" font-size="14.00" fill="#000000">Weitijn</text>
</g>
<!-- 4&#45;&gt;4c4 -->
<g id="edge21" class="edge">
<title>4&#45;&gt;4c4</title>
<path fill="none" stroke="#000000" d="M1956.3466,-71.8314C1956.3466,-64.131 1956.3466,-54.9743 1956.3466,-46.4166"/>
<polygon fill="#000000" stroke="#000000" points="1959.8467,-46.4132 1956.3466,-36.4133 1952.8467,-46.4133 1959.8467,-46.4132"/>
</g>
<!-- 4c5 -->
<g id="node28" class="node">
<title>4c5</title>
<ellipse fill="#b2dfee" stroke="#b2dfee" cx="2053.3466" cy="-18" rx="41.6928" ry="18"/>
<text text-anchor="middle" x="2053.3466" y="-14.3" font-family="Times,serif" font-size="14.00" fill="#000000">Godelief</text>
</g>
<!-- 4&#45;&gt;4c5 -->
<g id="edge24" class="edge">
<title>4&#45;&gt;4c5</title>
<path fill="none" stroke="#000000" d="M1969.4284,-80.2898C1983.2939,-69.9979 2005.6511,-53.4028 2023.8036,-39.9288"/>
<polygon fill="#000000" stroke="#000000" points="2026.3778,-42.3769 2032.3215,-33.6063 2022.2056,-36.7561 2026.3778,-42.3769"/>
</g>
<!-- 4c6 -->
<g id="node31" class="node">
<title>4c6</title>
<ellipse fill="#b2dfee" stroke="#b2dfee" cx="2147.3466" cy="-18" rx="34.394" ry="18"/>
<text text-anchor="middle" x="2147.3466" y="-14.3" font-family="Times,serif" font-size="14.00" fill="#000000">Hughe</text>
</g>
<!-- 4&#45;&gt;4c6 -->
<g id="edge27" class="edge">
<title>4&#45;&gt;4c6</title>
<path fill="none" stroke="#000000" d="M1974.2169,-83.7825C2002.137,-74.0004 2057.7381,-54.2467 2104.3466,-36 2106.5721,-35.1287 2108.8563,-34.219 2111.1562,-33.2912"/>
<polygon fill="#000000" stroke="#000000" points="2112.6606,-36.4572 2120.5877,-29.4279 2110.0073,-29.9796 2112.6606,-36.4572"/>
</g>
<!-- 4c7 -->
<g id="node34" class="node">
<title>4c7</title>
<ellipse fill="#b2dfee" stroke="#b2dfee" cx="2253.3466" cy="-18" rx="53.0913" ry="18"/>
<text text-anchor="middle" x="2253.3466" y="-14.3" font-family="Times,serif" font-size="14.00" fill="#000000">Gheeneman</text>
</g>
<!-- 4&#45;&gt;4c7 -->
<g id="edge30" class="edge">
<title>4&#45;&gt;4c7</title>
<path fill="none" stroke="#000000" d="M1977.0929,-85.5885C2018.0298,-76.8007 2112.0285,-56.2107 2190.3466,-36 2194.6129,-34.899 2199.0305,-33.7191 2203.4559,-32.5094"/>
<polygon fill="#000000" stroke="#000000" points="2204.401,-35.8795 2213.1007,-29.8326 2202.5288,-29.1345 2204.401,-35.8795"/>
</g>
</g>
</svg>
